# xmcd
#
# Track frame offsets:
#	182
#	13307
#	25982
#	37682
#	50957
#	63482
#	75857
#	87932
#	99932
#	112382
#	125657
#	138032
#	148982
#	160157
#	173657
#	184607
#	196907
#	209282
#	221732
#	231707
#	244232
#	257507
#
# Disc length: 3576 seconds
#
# Revision: 0
# Processed by: cddbd v1.4b42PL1 Copyright (c) Steve Scherf et al.
# Submitted via: dBpowerAMP V4.0
#
DISCID=3e0df616
DTITLE=Hank Williams - The Legendary Hank Williams
DYEAR=1991
DGENRE=Country
TTITLE0=Jambalaya (On the Bayou)
TTITLE1=I'm So Lonesome I could Cry
TTITLE2=Kaw-Liga
TTITLE3=Hey Good Lookin'
TTITLE4=Lovesick Blues
TTITLE5=Your Cheatin' Heart
TTITLE6=Take These Chains From My Heart
TTITLE7=You Win Again
TTITLE8=Move It On Over
TTITLE9=Wedding Bells
TTITLE10=Honky Tonkin'
TTITLE11=I Can't Help It If I'm Still In Love With You
TTITLE12=I'll Never Get Out Of This World Alive
TTITLE13=Be Careful Of Stones That You Throw
TTITLE14=Moanin' The Blues
TTITLE15=Lost Highway
TTITLE16=Half As Much
TTITLE17=Cold, Cold Heart
TTITLE18=Honky Tonk Blues
TTITLE19=I Saw The Light
TTITLE20=Mind Your Own Business
TTITLE21=Why Don't You Love Me
EXTD=Hank Williams, Senior\n
EXTT0=
EXTT1=
EXTT2=
EXTT3=
EXTT4=
EXTT5=
EXTT6=
EXTT7=
EXTT8=
EXTT9=
EXTT10=
EXTT11=
EXTT12=
EXTT13=
EXTT14=
EXTT15=
EXTT16=
EXTT17=
EXTT18=
EXTT19=
EXTT20=
EXTT21=
PLAYORDER=
